<?xml version="1.0" encoding="UTF-8" standalone="no"?>
<svg
   xml:space="preserve"
   width="24"
   height="24"
   viewBox="0 0 24 24"
   version="1.1"
   id="svg5"
   sodipodi:docname="big-parental-controls.svg"
   inkscape:version="1.4.3 (0d15f75042, 2025-12-25)"
   xmlns:inkscape="http://www.inkscape.org/namespaces/inkscape"
   xmlns:sodipodi="http://sodipodi.sourceforge.net/DTD/sodipodi-0.dtd"
   xmlns:xlink="http://www.w3.org/1999/xlink"
   xmlns="http://www.w3.org/2000/svg"
   xmlns:svg="http://www.w3.org/2000/svg"><sodipodi:namedview
     id="namedview5"
     pagecolor="#ffffff"
     bordercolor="#000000"
     borderopacity="0.25"
     inkscape:showpageshadow="2"
     inkscape:pageopacity="0.0"
     inkscape:pagecheckerboard="0"
     inkscape:deskcolor="#d1d1d1"
     inkscape:zoom="9.6155602"
     inkscape:cx="29.899454"
     inkscape:cy="40.195266"
     inkscape:window-width="2560"
     inkscape:window-height="1372"
     inkscape:window-x="0"
     inkscape:window-y="0"
     inkscape:window-maximized="1"
     inkscape:current-layer="svg5" /><defs
     id="defs5"><linearGradient
       id="c"
       x1=".05"
       x2="1"
       y2="1"
       gradientTransform="matrix(22 0 0 22 -56.75 -22.125)"
       gradientUnits="userSpaceOnUse"><stop
         offset="0.2"
         stop-color="#7e0000"
         style="stop-color:#f7c621;stop-opacity:1;"
         id="stop1" /><stop
         offset="0.205"
         stop-color="#ae0003"
         style="stop-color:#fde457;stop-opacity:1;"
         id="stop2" /><stop
         offset="1"
         stop-color="#7e0002"
         style="stop-color:#df9317;stop-opacity:1;"
         id="stop3" /></linearGradient><linearGradient
       id="d"
       x1="123.3"
       x2="8.261"
       y1="120.17"
       y2="13.466"
       gradientTransform="translate(53.824 2.949)scale(.18333)"
       gradientUnits="userSpaceOnUse"><stop
         offset="0"
         stop-color="#0257a9"
         id="stop4" /><stop
         offset="1"
         stop-color="#4c92d6"
         id="stop5" /></linearGradient><linearGradient
       xlink:href="#c"
       id="e"
       x1=".05"
       x2="1"
       y2="1"
       gradientTransform="matrix(22,0,0,22,-60,0)"
       gradientUnits="userSpaceOnUse" /><linearGradient
       id="linear-gradient"
       x1="70.74"
       x2="304.39"
       y1="207.69"
       y2="456.44"
       gradientTransform="matrix(1 0 0 -1 16.81 529.63)"
       gradientUnits="userSpaceOnUse"><stop
         offset="0"
         stop-color="#2d85c6"
         id="stop1-5" /><stop
         offset="1"
         stop-color="#04bacc"
         id="stop2-3" /></linearGradient><linearGradient
       xlink:href="#linear-gradient"
       id="linear-gradient-2"
       x1="146.39"
       x2="380.04"
       y1="136.63"
       y2="385.38"
       gradientTransform="matrix(0.00475152,0,0,0.00475152,12.783611,23.783611)" /><linearGradient
       xlink:href="#linear-gradient"
       id="linear-gradient-3"
       x1="127.32"
       x2="360.97"
       y1="154.54"
       y2="403.29"
       gradientTransform="matrix(0.00475152,0,0,0.00475152,12.783611,23.783611)" /><style
       id="style2">.cls-2{fill:#2c2d3d}</style><linearGradient
       id="a"
       x1="22.188"
       x2="5.319"
       y1="23.063"
       y2="5.324"
       gradientUnits="userSpaceOnUse"
       spreadMethod="pad"><stop
         offset="0"
         style="stop-color:#ca9317;stop-opacity:0.90196079;"
         id="stop1-2" /><stop
         offset="0.954"
         style="stop-color:#8c7902;stop-opacity:0.90196079;"
         id="stop2-9" /><stop
         offset="0.954"
         style="stop-color:#816007;stop-opacity:0.90196079;"
         id="stop3-1" /><stop
         offset="0.954"
         style="stop-color:#3b2b01;stop-opacity:0.90196079;"
         id="stop4-2" /></linearGradient><linearGradient
       xlink:href="#a"
       id="b"
       x1="22.188"
       x2="5.319"
       y1="23.063"
       y2="5.324"
       gradientTransform="matrix(1.08032,0,0,1.08032,-0.964,-0.96372303)"
       gradientUnits="userSpaceOnUse"
       spreadMethod="pad" /></defs><path
     d="m 4.137,2.124277 a 2.7,2.7 0 0 0 -2.705,2.707 v 14.34 c 0,1.5 1.205,2.705 2.705,2.705 h 15.726 c 1.5,0 2.705,-1.206 2.705,-2.705 v -14.341 a 2.7,2.7 0 0 0 -2.705,-2.707 z"
     style="fill:url(#b);stroke:none;stroke-width:1.44042"
     id="path4" /><path
     id="path22"
     style="fill:#2c2c2b;fill-opacity:1;stroke:none;stroke-width:1.44042"
     d="M 10.203125 8.8632812 A 2.3622517 2.3622517 0 0 0 7.8398438 11.226562 A 2.3622517 2.3622517 0 0 0 10.203125 13.587891 A 2.3622517 2.3622517 0 0 0 12.5625 11.226562 A 2.3622517 2.3622517 0 0 0 10.203125 8.8632812 z M 14.625 11.279297 A 2.0645185 2.0645185 0 0 0 12.560547 13.34375 A 2.0645185 2.0645185 0 0 0 14.625 15.408203 A 2.0645185 2.0645185 0 0 0 16.689453 13.34375 A 2.0645185 2.0645185 0 0 0 14.625 11.279297 z M 8.4570312 14.056641 C 7.0036843 14.056645 6.573829 15.085955 6.359375 16.308594 C 6.135859 17.906393 5.7075732 21.15884 5.7070312 21.185547 C 5.7064233 21.479217 5.8647004 21.736486 6.0996094 21.876953 L 6.921875 21.876953 C 7.156763 21.736463 7.313135 21.479148 7.3125 21.185547 L 7.9863281 16.330078 L 8.0390625 16.330078 L 8.0390625 21.876953 L 10.503906 21.876953 C 10.503643 21.868653 10.503889 21.859953 10.503906 21.851562 C 10.5044 21.827333 10.892943 18.877222 11.095703 17.427734 C 11.290255 16.318583 11.679595 15.382815 12.998047 15.382812 L 13.138672 15.382812 C 12.690195 15.055888 12.36223 14.590866 12.205078 14.058594 C 12.158338 14.056294 12.109618 14.056641 12.060547 14.056641 L 10.283203 14.056641 L 10.234375 14.056641 L 8.4570312 14.056641 z M 13.183594 15.810547 C 12.01497 15.810549 11.670494 16.637985 11.498047 17.621094 C 11.318324 18.905865 10.973084 21.521495 10.972656 21.542969 C 10.972404 21.664905 11.005943 21.779604 11.064453 21.876953 L 12.171875 21.876953 C 12.230265 21.779593 12.263932 21.664888 12.263672 21.542969 L 12.269531 21.5 L 12.849609 21.5 L 12.849609 21.876953 L 16.417969 21.876953 L 16.417969 21.5 L 16.994141 21.5 L 17 21.542969 C 16.999747 21.664888 17.03513 21.779592 17.09375 21.876953 L 18.201172 21.876953 C 18.259672 21.779603 18.293219 21.664908 18.292969 21.542969 C 18.292532 21.521489 17.947302 18.905865 17.767578 17.621094 C 17.595141 16.637985 17.250655 15.810549 16.082031 15.810547 L 14.652344 15.810547 L 14.613281 15.810547 L 13.183594 15.810547 z " /><rect
     style="fill:#a9a9a9;fill-opacity:1;stroke-width:0.0324103"
     id="rect20"
     width="5.5339103"
     height="3.5308757"
     x="11.869856"
     y="17.747383"
     rx="0.24748635"
     ry="0.24748635" /><path
     id="path9"
     style="fill:#2c2c2b;fill-opacity:1;stroke-width:0.0597892"
     class="cls-3"
     d="m 14.636719,18.6875 c -0.456314,0 -0.826172,0.369891 -0.826172,0.826172 0,0.456282 0.369858,0.826172 0.826172,0.826172 0.456315,0 0.826172,-0.369857 0.826172,-0.826172 0,-0.456314 -0.36989,-0.826172 -0.826172,-0.826172 z m -0.002,0.06641 c 0.209612,-1.59e-4 0.409848,0.08687 0.552734,0.240235 -0.01996,-0.0082 -0.04102,-0.01349 -0.0625,-0.01563 l -0.06641,0.0039 c -0.06613,0.01235 -0.12571,0.04932 -0.171875,0.09766 -0.0116,0.0085 -0.01929,0.02157 -0.02734,0.0332 -0.02059,0.02209 -0.03519,0.04834 -0.05078,0.07422 -0.027,0.05743 -0.04756,0.119812 -0.04687,0.183594 -0.0039,0.01601 6.6e-4,0.03305 0.0039,0.04883 0.0064,0.05212 0.0307,0.100533 0.06641,0.138672 0.01375,0.01601 0.03183,0.02689 0.04883,0.03906 0.03821,0.0215 0.08038,0.04093 0.125,0.04297 0.03257,0.0058 0.06491,-0.0084 0.0918,-0.02539 0.01876,-0.01111 0.03254,-0.02899 0.04883,-0.04297 0.01723,-0.02021 0.03413,-0.04025 0.05664,-0.05469 0.0096,-0.0032 0.01938,-0.0058 0.0293,-0.0078 0.01305,0.0025 0.0272,0.0062 0.03711,0.01563 0.0094,0.0072 0.0133,0.01778 0.01953,0.02734 0.0097,0.01567 0.01494,0.03487 0.01953,0.05273 0.0084,0.02486 0.0092,0.0506 0.01563,0.07617 2.95e-4,0.0256 0.004,0.05287 0,0.07813 0.0018,0.01653 0.0016,0.03036 0,0.04687 -0.0015,0.0086 -0.0034,0.01705 -0.0059,0.02539 -0.178481,0.377841 -0.629939,0.54189 -1.007812,0.363281 -0.08267,-0.03957 -0.15745,-0.09384 -0.220703,-0.160156 0.01523,0.0049 0.03094,0.0082 0.04687,0.0098 l 0.06445,-0.0039 c 0.06617,-0.01235 0.127733,-0.04937 0.173828,-0.09766 0.0116,-0.0085 0.0193,-0.02157 0.02734,-0.0332 0.02063,-0.02209 0.03319,-0.04828 0.04883,-0.07422 0.02693,-0.05743 0.04754,-0.119849 0.04687,-0.183594 0.0039,-0.01601 0.0016,-0.03301 -0.002,-0.04883 -0.0064,-0.05212 -0.03073,-0.100397 -0.06641,-0.138672 -0.01375,-0.01601 -0.03381,-0.02694 -0.05078,-0.03906 -0.03823,-0.02157 -0.07847,-0.04286 -0.123047,-0.04492 -0.03257,-0.0058 -0.06495,0.0083 -0.0918,0.02539 -0.01877,0.01111 -0.03257,0.02902 -0.04883,0.04297 -0.01741,0.02019 -0.03578,0.0422 -0.05859,0.05664 -0.0096,0.0032 -0.01938,0.0058 -0.0293,0.0078 -0.01305,-0.0025 -0.02529,-0.0063 -0.03516,-0.01563 -0.0094,-0.0072 -0.01533,-0.01775 -0.02149,-0.02734 -0.0097,-0.01566 -0.01494,-0.03298 -0.01953,-0.05078 -0.0084,-0.02489 -0.0092,-0.0526 -0.01563,-0.07813 -2.95e-4,-0.02557 -0.004,-0.05087 0,-0.07617 -0.0018,-0.01671 3.53e-4,-0.03422 0.002,-0.05078 -2.6e-5,-6.66e-4 -2.6e-5,-0.0013 0,-0.002 -2.6e-5,-6.66e-4 -2.6e-5,-0.0013 0,-0.002 0.115707,-0.26943 0.385098,-0.457032 0.697266,-0.457032 z m -0.08003,0.37109 c -0.01519,3.83e-4 -0.02904,0.0062 -0.04297,0.01172 -0.03136,0.01126 -0.05813,0.03254 -0.07617,0.06055 -0.0087,0.01909 -0.01857,0.04363 -0.0098,0.06445 0.0075,0.02903 0.0334,0.04947 0.06055,0.06055 0.02199,0.0079 0.04482,0.01226 0.06836,0.0078 0.02217,0.0012 0.04276,-0.0063 0.0625,-0.01563 0.02565,-0.01357 0.05072,-0.03331 0.0625,-0.06055 0.0114,-0.02037 0.01284,-0.04484 0.0039,-0.06641 -0.0061,-0.01794 -0.02179,-0.02863 -0.03516,-0.04102 -0.02241,-0.01375 -0.04969,-0.02283 -0.07617,-0.02148 -0.0039,1.96e-4 -0.0081,-7.14e-4 -0.01172,0 -0.0022,-1.38e-4 -0.0037,-5.5e-5 -0.0059,0 z m 0.601562,0.01953 c 0.0041,-1.19e-4 0.0077,6e-4 0.01172,0 0.04236,6.1e-4 0.08288,0.01738 0.113281,0.04687 0.02221,0.01723 0.03693,0.04146 0.05273,0.06445 0.01098,0.01601 0.01669,0.03782 0.0293,0.05273 0.01109,0.03966 0.01892,0.08016 0.02344,0.121094 -0.0095,-0.02801 -0.02339,-0.05437 -0.04102,-0.07813 -0.01777,-0.02554 -0.04537,-0.04252 -0.07617,-0.04687 -0.02519,-0.0015 -0.0506,0.0098 -0.07226,0.02148 -0.02755,0.01825 -0.05321,0.03666 -0.07617,0.06055 -0.01235,0.0097 -0.02256,0.02311 -0.03516,0.0332 -0.02237,0.02141 -0.04049,0.0484 -0.06445,0.06836 -0.01925,0.02221 -0.03863,0.04197 -0.0625,0.05859 -0.008,0.0043 -0.02009,0.01013 -0.0293,0.0098 l -0.002,-0.002 -0.002,-0.002 -0.002,-0.002 h -0.002 c -0.0018,-0.0022 -0.0029,-0.0058 -0.0039,-0.0078 l -0.002,-0.002 c -0.0016,-0.0057 -0.0026,-0.0156 -0.0039,-0.02148 -3.47e-4,-0.0011 4.63e-4,-0.0028 0,-0.0039 -0.0021,-0.02059 -0.0041,-0.04174 -0.0059,-0.0625 0.0035,-0.05282 0.01518,-0.10609 0.04102,-0.152344 0.0073,-0.01653 0.01866,-0.03112 0.02734,-0.04687 0.0094,-0.01223 0.02168,-0.02295 0.03125,-0.03516 0.03202,-0.03133 0.07061,-0.05854 0.115235,-0.06836 0.01136,-0.0048 0.02291,-0.0055 0.03516,-0.0059 z m -0.550781,0.208985 c -0.03544,9.71e-4 -0.07228,0.0167 -0.08984,0.04883 -0.0072,0.01357 -0.01001,0.02996 -0.01172,0.04492 0.0022,0.04121 0.01987,0.08016 0.04102,0.115234 0.01952,0.02965 0.04367,0.05628 0.07227,0.07813 0.01635,0.01688 0.03694,0.02868 0.05664,0.04102 0.0362,0.02078 0.07593,0.03468 0.117188,0.04102 0.03286,0.0064 0.06616,0.01032 0.09961,0.01172 -0.02187,-0.02675 -0.05025,-0.04632 -0.07227,-0.07227 -0.04407,-0.04254 -0.08581,-0.09022 -0.101562,-0.15039 -0.0075,-0.02868 -0.0076,-0.05831 -0.0098,-0.08789 -0.0079,-0.02393 -0.0235,-0.04826 -0.04883,-0.05664 -0.01636,-0.0094 -0.03459,-0.01075 -0.05273,-0.01367 z m -0.285157,0.113281 c 9.76e-4,-2.06e-4 0.005,9.2e-5 0.0059,0 h 0.002 c 8.58e-4,9.6e-5 0.003,-1.71e-4 0.0039,0 v 0.002 h 0.002 v 0.002 c 0.0013,0.0011 0.0032,0.0013 0.0039,0.002 l 0.002,0.002 v 0.002 c 0.0052,0.0094 0.0057,0.02352 0.0098,0.0332 0.0021,0.02063 0.0021,0.03985 0.0039,0.06055 -0.0035,0.05283 -0.01518,0.106097 -0.04102,0.152344 -0.0073,0.01653 -0.01864,0.03115 -0.02734,0.04687 -0.0092,0.01223 -0.0197,0.02094 -0.0293,0.0332 -0.03202,0.03125 -0.0706,0.06045 -0.115234,0.07031 -0.01515,0.0064 -0.03102,0.0035 -0.04687,0.0059 -0.04303,-1.1e-4 -0.08434,-0.01691 -0.115235,-0.04687 -0.0222,-0.01723 -0.03689,-0.04144 -0.05274,-0.06445 -0.0045,-0.0062 -0.0084,-0.01269 -0.01172,-0.01953 -0.01342,-0.04139 -0.02322,-0.08387 -0.0293,-0.126953 0.0077,0.01867 0.0175,0.03636 0.0293,0.05273 0.01859,0.02527 0.04694,0.04157 0.07813,0.04492 0.0252,0.0015 0.05058,-0.0081 0.07226,-0.01953 0.02755,-0.01824 0.05321,-0.03864 0.07617,-0.0625 0.01236,-0.0097 0.0206,-0.02307 0.0332,-0.0332 0.02239,-0.02136 0.0405,-0.04834 0.06445,-0.06836 0.01922,-0.0222 0.04062,-0.04389 0.06445,-0.06055 0.0057,-0.003 0.01137,-0.0066 0.01758,-0.0078 z"
     sodipodi:nodetypes="ssssscccccccccccccccccccccccccccccccccccccccccccccccccccccccccccscccccccccccccccccccccccccccccccccccccccccccccccccccccscccccccccccccccccccccc" /></svg>
